<svg width="1200" height="720" viewBox="0 0 1200 720" fill="none" xmlns="http://www.w3.org/2000/svg">
  <rect width="1200" height="720" rx="36" fill="#08121C"/>
  <rect x="56" y="56" width="1088" height="608" rx="28" fill="#0F172A" stroke="#263449" stroke-width="2"/>
  <rect x="92" y="92" width="1016" height="60" rx="16" fill="#111C2E"/>
  <rect x="118" y="112" width="220" height="20" rx="10" fill="#F472B6"/>
  <rect x="918" y="108" width="150" height="32" rx="16" fill="#7C3AED"/>
  <rect x="92" y="186" width="472" height="180" rx="24" fill="#111C2E"/>
  <rect x="592" y="186" width="516" height="180" rx="24" fill="#111C2E"/>
  <rect x="126" y="220" width="180" height="16" rx="8" fill="#E2E8F0"/>
  <rect x="126" y="252" width="248" height="12" rx="6" fill="#334155"/>
  <rect x="126" y="278" width="176" height="12" rx="6" fill="#334155"/>
  <rect x="628" y="220" width="190" height="108" rx="18" fill="#1E293B"/>
  <rect x="840" y="220" width="220" height="108" rx="18" fill="#1E293B"/>
  <rect x="92" y="402" width="1016" height="220" rx="24" fill="#111C2E"/>
  <circle cx="150" cy="512" r="48" fill="#5EEAD4"/>
  <rect x="238" y="480" width="240" height="16" rx="8" fill="#E2E8F0"/>
  <rect x="238" y="512" width="220" height="12" rx="6" fill="#334155"/>
  <rect x="238" y="536" width="190" height="12" rx="6" fill="#334155"/>
</svg>